<svg width="308" height="66" viewBox="0 0 308 66" fill="none" xmlns="http://www.w3.org/2000/svg">
<g clip-path="url(#clip0_298_736)">
<path d="M58.7471 13.2428C59.0775 11.9609 59.3485 10.6656 59.5071 9.33078C59.5071 9.09288 59.5731 8.84177 59.5269 8.56422C59.4013 6.56854 57.366 5.88789 55.7007 5.96719C54.6831 6.08614 53.8967 6.73375 53.1764 7.44083C44.3544 0.251081 31.9111 -2.40542 20.1485 2.50448C3.49577 9.34399 -4.55305 28.9902 2.64331 45.5042C7.55982 57.3659 20.0097 65.4676 32.79 65.2429C50.1762 65.276 65.1901 50.4273 65.1835 33.0146C65.2826 25.4813 62.831 18.688 58.7471 13.2428ZM14.6042 26.4725C14.6042 26.4725 14.6042 26.4196 14.6042 26.3866C14.6042 26.4329 14.6042 26.4659 14.6042 26.4923C14.6042 26.4791 14.6042 26.4725 14.6042 26.4725ZM14.6901 26.413C14.7364 26.3073 14.8024 26.195 14.8883 26.0826C14.8421 26.1619 14.7628 26.2875 14.6901 26.413ZM32.7834 4.79093C39.2529 4.71163 45.306 6.87913 50.1829 10.5533C47.566 13.4081 45.1408 16.3685 42.8147 19.5074C39.4313 24.153 35.7769 29.8361 31.9838 34.5874C32.8098 28.2105 36.1338 16.3884 30.5102 14.7165C28.6202 14.32 27.6158 15.0337 26.3933 15.9588C25.1972 16.9963 24.1465 18.1263 23.1817 19.3026C23.4658 18.5691 23.7434 17.8356 23.9218 17.3399C24.8007 14.961 25.9902 11.6437 26.8162 9.20522C27.2391 7.89679 27.7083 6.58837 27.9726 5.21386C29.5322 4.94292 31.1446 4.79093 32.7966 4.79093H32.7834ZM20.6441 7.53995C18.9458 12.6745 17.3466 18.0206 15.4566 22.9834C15.1461 23.7697 15.0073 24.6883 14.8024 25.5077C14.7231 25.8381 14.6769 25.891 14.6174 26.2941C14.6174 26.3271 14.6174 26.3536 14.6174 26.38C14.6174 26.38 14.6174 26.38 14.6174 26.3998C14.6174 26.3998 14.6108 26.4923 14.6042 26.5848C14.5183 26.7368 14.472 26.8293 14.5579 26.7104L14.4985 26.8888C14.135 28.2501 11.5181 36.5038 11.0556 38.0501C10.2692 40.4555 9.50925 42.9204 8.60392 45.2663C8.3462 45.8742 8.08848 46.4822 7.87041 47.1166C7.30871 46.0923 6.80648 45.0416 6.37695 43.9579C0.515458 29.4726 7.7052 13.7517 20.6441 7.53334V7.53995ZM21.7279 59.7185C17.5448 57.9475 13.8376 55.1258 10.9498 51.6432C11.5446 51.4252 12.0666 50.9956 12.397 50.533C13.6526 48.5241 14.7297 45.9998 15.5624 43.9513C17.3862 39.6889 19.7586 35.4729 22.1177 31.4088C23.902 28.4484 25.6531 25.3888 27.8735 22.7389C27.781 23.9812 27.596 25.2368 27.4307 26.3668C27.021 29.4528 26.3999 32.6644 26.1157 36.0148C26.0034 38.0039 25.7126 40.2176 26.7501 42.101C27.5167 43.601 29.6445 44.2024 31.1115 43.4821C32.3869 42.9336 33.3187 41.8895 34.191 40.9379C36.4179 38.4003 38.2484 35.7835 40.1912 33.0873C43.72 28.0585 47.6585 22.2499 51.8415 17.2474C51.7292 17.6043 51.6301 17.9677 51.5111 18.3246C49.9384 23.3468 48.0021 29.4991 46.5285 34.5345C44.3214 42.8543 42.5438 51.1542 41.1626 59.626C41.1428 59.8044 41.0899 60.2273 41.0899 60.4057C41.0767 60.5577 41.0899 60.7031 41.1032 60.8485C35.0368 62.6525 28.27 62.4741 21.7345 59.7053L21.7279 59.7185ZM46.1651 58.8131C47.0373 53.8636 48.2863 48.8612 49.4361 43.9711C51.4384 35.1888 54.5773 26.8624 57.2867 18.2783C59.9895 22.5803 61.582 27.6289 61.6085 33.0213C61.7671 44.5989 55.258 54.0883 46.1651 58.8131Z" fill="#AF9064"/>
<path d="M94.7024 21.9063L93.1098 25.3491L91.5173 21.9063L87.4664 14.1284H85.1667V29.8295H87.2285V21.1595L86.9708 16.9171L88.7286 20.8027L92.1252 27.2259H94.0945L97.4713 20.8027L99.1828 16.9171L98.9911 21.1595V29.8295H101.033V14.1284H98.7599L94.7024 21.9063Z" fill="#49484F"/>
<path d="M109.188 14.1284H108.48V29.8295H109.188H110.542H119.239V27.999H110.542V22.6794H117.739V20.8754H110.542V15.9523H119.239V14.1284H110.542H109.188Z" fill="#49484F"/>
<path d="M127.089 14.1284H125.028V29.8295H125.728H127.089H135.317V27.999H127.089V14.1284Z" fill="#49484F"/>
<path d="M145.341 14.1284L139.017 29.8295H141.171L142.89 25.4483H149.742L151.454 29.8295H153.701L147.376 14.1284H145.341ZM143.597 23.6442L145.546 18.6748L146.319 16.2166L147.092 18.6748L149.035 23.6442H143.597Z" fill="#49484F"/>
<path d="M168.827 24.1531L168.966 26.5717L167.347 24.1332L160.342 14.1284H158.511V29.8295H160.573V19.5868L160.461 17.4986L161.862 19.6132L169.058 29.8295H170.889V14.1284H168.827V24.1531Z" fill="#49484F"/>
<path d="M180.378 14.1284H178.316V29.8295H180.378V14.1284Z" fill="#49484F"/>
<path d="M188.506 14.1284H187.806V29.8295H188.506H189.867H198.564V27.999H189.867V22.6794H197.064V20.8754H189.867V15.9523H198.564V14.1284H189.867H188.506Z" fill="#49484F"/>
<path d="M223.589 22.349C222.935 21.9723 222.056 21.7345 220.966 21.6221C221.64 21.5428 222.208 21.3974 222.677 21.1794C223.146 20.9613 223.53 20.697 223.84 20.393C224.151 20.089 224.369 19.7388 224.508 19.3489C224.646 18.959 224.719 18.5493 224.719 18.133C224.719 17.3334 224.541 16.6395 224.19 16.0382C223.84 15.4368 223.325 14.9676 222.657 14.6306C221.983 14.2936 221.144 14.1284 220.126 14.1284H213.472V29.8295H220.007C221.164 29.8295 222.142 29.6643 222.935 29.3339C223.734 29.0035 224.342 28.5277 224.772 27.8933C225.202 27.2589 225.42 26.499 225.42 25.6069C225.42 24.9328 225.281 24.3183 224.997 23.7566C224.713 23.1949 224.25 22.7257 223.589 22.349ZM219.419 15.9523C220.027 15.9523 220.576 16.0249 221.058 16.1637C221.541 16.3025 221.917 16.547 222.195 16.9038C222.472 17.2607 222.604 17.7497 222.604 18.3907C222.604 19.0317 222.472 19.5075 222.208 19.8643C221.944 20.2212 221.58 20.4789 221.118 20.6375C220.655 20.7961 220.12 20.8688 219.512 20.8688H215.527V15.9456H219.419V15.9523ZM222.433 27.3647C221.845 27.7876 220.919 27.999 219.657 27.999H215.534V22.6794H219.75C220.437 22.6794 221.045 22.7719 221.58 22.9504C222.109 23.1288 222.532 23.4129 222.842 23.8028C223.153 24.1927 223.312 24.7082 223.312 25.3491C223.312 26.2743 223.021 26.9417 222.433 27.3647Z" fill="#49484F"/>
<path d="M241.008 24.0011C240.737 23.7566 240.44 23.5715 240.129 23.4394C240.05 23.4063 239.964 23.3865 239.885 23.3601C240.519 23.294 241.101 23.1354 241.63 22.8843C242.376 22.5274 242.971 22.012 243.414 21.3512C243.85 20.6904 244.068 19.8841 244.068 18.9524C244.068 17.9083 243.837 17.0294 243.367 16.3157C242.898 15.602 242.264 15.0601 241.458 14.6901C240.652 14.3134 239.753 14.1284 238.748 14.1284H231.856V29.8295H233.918V23.5517H236.402C237.202 23.5517 237.823 23.6574 238.279 23.8689C238.735 24.0804 239.105 24.4504 239.403 24.9791L242.171 29.8295H244.583L241.748 24.9791C241.53 24.576 241.286 24.2522 241.008 24.0077V24.0011ZM233.918 21.86V15.9523H238.391C239.019 15.9523 239.601 16.0382 240.149 16.21C240.698 16.3818 241.134 16.6858 241.464 17.1219C241.795 17.5581 241.953 18.166 241.953 18.9524C241.953 19.6859 241.788 20.2674 241.464 20.6837C241.134 21.1067 240.698 21.404 240.149 21.5891C239.601 21.7675 239.019 21.86 238.391 21.86H233.918Z" fill="#49484F"/>
<path d="M262.36 16.2364C261.679 15.5029 260.879 14.928 259.961 14.5117C259.042 14.0953 258.005 13.8905 256.868 13.8905C255.732 13.8905 254.714 14.0953 253.776 14.5117C252.837 14.928 252.038 15.5029 251.377 16.2364C250.709 16.9699 250.194 17.829 249.83 18.8004C249.46 19.7784 249.282 20.8291 249.282 21.9525C249.282 23.0759 249.467 24.1531 249.83 25.1377C250.194 26.1223 250.709 26.9814 251.377 27.7149C252.038 28.4484 252.844 29.0233 253.776 29.4396C254.707 29.856 255.745 30.0608 256.868 30.0608C257.992 30.0608 259.042 29.856 259.961 29.4396C260.879 29.0233 261.686 28.4484 262.36 27.7149C263.04 26.9814 263.556 26.1223 263.919 25.1377C264.276 24.1531 264.454 23.0891 264.454 21.9525C264.454 20.8159 264.276 19.7784 263.919 18.8004C263.562 17.8224 263.04 16.9699 262.36 16.2364ZM261.719 25.1509C261.309 26.0827 260.708 26.8096 259.901 27.3316C259.095 27.8537 258.091 28.118 256.888 28.118C255.685 28.118 254.694 27.8537 253.875 27.3316C253.055 26.8096 252.434 26.0827 252.024 25.1509C251.615 24.2191 251.403 23.1552 251.403 21.9525C251.403 20.7498 251.608 19.6925 252.024 18.7806C252.441 17.8686 253.055 17.1417 253.875 16.6131C254.694 16.0844 255.699 15.8135 256.888 15.8135C258.078 15.8135 259.095 16.0778 259.901 16.6131C260.708 17.1417 261.309 17.8686 261.719 18.7806C262.128 19.6925 262.327 20.7498 262.327 21.9525C262.327 23.1552 262.122 24.2191 261.719 25.1509Z" fill="#49484F"/>
<path d="M285.191 23.8491L284.398 27.9264L283.433 23.9019L280.671 14.1284H278.067L275.232 23.9019L274.248 27.9264L273.475 23.8491L271.089 14.1284H268.743L273.098 29.8295H275.47L278.371 19.633L279.31 15.8135L280.275 19.633L283.156 29.8295H285.521L289.929 14.1284H287.629L285.191 23.8491Z" fill="#49484F"/>
<path d="M305.115 14.1284V24.1531L305.254 26.5717L303.635 24.1332L296.63 14.1284H294.799V29.8295H296.861V19.5868L296.749 17.4986L298.15 19.6132L305.346 29.8295H307.17V14.1284H305.115Z" fill="#49484F"/>
<path d="M88.9202 42.5768L85.365 51.3988H86.5743L87.5391 48.9339H91.3917L92.3565 51.3988H93.6187L90.0634 42.5768H88.9202ZM87.9422 47.9228L89.0392 45.1342L89.4753 43.753L89.9115 45.1342L91.0018 47.9228H87.9422Z" fill="#49484F"/>
<path d="M96.718 42.5768H96.3215V51.3988H96.718H97.478H102.368V50.3745H97.478V47.3876H101.522V46.3699H97.478V43.6077H102.368V42.5768H97.478H96.718Z" fill="#49484F"/>
<path d="M111.051 47.2884C110.8 47.0968 110.522 46.9514 110.205 46.8457C109.895 46.74 109.584 46.6474 109.28 46.5681L108.289 46.3302C107.8 46.1981 107.403 46.0263 107.099 45.8214C106.795 45.6166 106.643 45.2994 106.643 44.8698C106.643 44.5857 106.716 44.3544 106.868 44.1628C107.02 43.9711 107.218 43.8257 107.476 43.7134C107.727 43.6011 108.018 43.5482 108.342 43.5482C108.923 43.5482 109.425 43.6803 109.848 43.9447C110.271 44.209 110.595 44.6385 110.807 45.2333L111.771 44.4667C111.5 43.8059 111.064 43.3103 110.47 42.9667C109.875 42.623 109.174 42.4512 108.375 42.4512C107.853 42.4512 107.377 42.5437 106.934 42.7354C106.491 42.927 106.128 43.2046 105.85 43.5746C105.566 43.9447 105.427 44.394 105.427 44.9293C105.427 45.3522 105.5 45.7025 105.652 45.98C105.798 46.2642 105.996 46.4955 106.247 46.6805C106.491 46.8655 106.762 47.0109 107.06 47.1232C107.357 47.2356 107.648 47.3215 107.932 47.3942L108.778 47.566C109.161 47.6519 109.505 47.751 109.802 47.8634C110.099 47.9757 110.331 48.1211 110.489 48.3127C110.648 48.5044 110.727 48.7621 110.727 49.0991C110.727 49.4361 110.641 49.6872 110.476 49.8855C110.311 50.0837 110.086 50.2291 109.809 50.3216C109.531 50.4141 109.227 50.4604 108.903 50.4604C108.533 50.4604 108.157 50.3943 107.767 50.2687C107.377 50.1432 107.02 49.9383 106.703 49.6542C106.379 49.3766 106.161 48.9934 106.035 48.511L105.15 49.2643C105.335 49.8062 105.612 50.2489 105.996 50.5793C106.372 50.9164 106.815 51.1542 107.324 51.3128C107.833 51.4648 108.362 51.5441 108.903 51.5441C109.445 51.5441 109.987 51.445 110.436 51.2468C110.892 51.0485 111.243 50.771 111.507 50.4009C111.765 50.0375 111.897 49.5947 111.897 49.0793C111.897 48.6563 111.818 48.2995 111.666 48.0153C111.514 47.7312 111.309 47.4867 111.058 47.295L111.051 47.2884Z" fill="#49484F"/>
<path d="M116.734 42.5768H113.952V43.6077H116.734V51.3988H117.877V43.6077H120.646V42.5768H117.877H116.734Z" fill="#49484F"/>
<path d="M129.085 46.3699H124.446V42.5768H123.29V51.3988H124.446V47.3876H129.085V51.3988H130.241V42.5768H129.085V46.3699Z" fill="#49484F"/>
<path d="M134.814 42.5768H134.418V51.3988H134.814H135.574H140.464V50.3745H135.574V47.3876H139.618V46.3699H135.574V43.6077H140.464V42.5768H135.574H134.814Z" fill="#49484F"/>
<path d="M145.625 42.5768H142.843V43.6077H145.625V51.3988H146.769V43.6077H149.537V42.5768H146.769H145.625Z" fill="#49484F"/>
<path d="M153.337 42.5768H152.181V51.3988H153.337V42.5768Z" fill="#49484F"/>
<path d="M159.397 43.9711C159.826 43.6737 160.381 43.5218 161.056 43.5218C161.611 43.5218 162.08 43.6275 162.463 43.8323C162.846 44.0372 163.157 44.328 163.388 44.6914C163.619 45.0615 163.785 45.491 163.884 45.98L164.908 45.306C164.716 44.698 164.439 44.1826 164.082 43.7597C163.725 43.3367 163.296 43.0063 162.787 42.775C162.278 42.5503 161.697 42.4314 161.036 42.4314C160.137 42.4314 159.39 42.6363 158.776 43.0394C158.168 43.4425 157.699 43.9843 157.381 44.665C157.058 45.3456 156.899 46.1122 156.899 46.9646C156.899 47.8171 157.058 48.5704 157.381 49.2577C157.699 49.9449 158.168 50.4868 158.776 50.8899C159.384 51.293 160.137 51.4979 161.036 51.4979C161.697 51.4979 162.278 51.3855 162.787 51.1543C163.296 50.923 163.732 50.5992 164.082 50.163C164.439 49.7335 164.71 49.218 164.908 48.6233L163.884 47.9493C163.785 48.4317 163.626 48.8612 163.388 49.2313C163.157 49.6013 162.846 49.8921 162.463 50.0969C162.08 50.3018 161.611 50.4075 161.056 50.4075C160.381 50.4075 159.826 50.2555 159.397 49.9582C158.967 49.6608 158.644 49.2511 158.432 48.7356C158.214 48.2202 158.108 47.6255 158.108 46.958C158.108 46.2906 158.214 45.6893 158.432 45.1738C158.644 44.6584 158.967 44.2553 159.397 43.9579V43.9711Z" fill="#49484F"/>
<path d="M178.7 46.9514L177.807 48.8876L176.909 46.9514L174.636 42.5768H173.34V51.3988H174.503V46.5285L174.358 44.1429L175.343 46.3303L177.252 49.9383H178.363L180.259 46.3303L181.217 44.1429L181.112 46.5285V51.3988H182.261V42.5768H180.979L178.7 46.9514Z" fill="#49484F"/>
<path d="M186.841 42.5768H186.444V51.3988H186.841H187.607H192.491V50.3745H187.607V47.3876H191.645V46.3699H187.607V43.6077H192.491V42.5768H187.607H186.841Z" fill="#49484F"/>
<path d="M201.194 43.0988C200.579 42.7552 199.813 42.5768 198.888 42.5768H195.742V51.3988H198.874C199.806 51.3988 200.579 51.2269 201.194 50.8767C201.809 50.5331 202.271 50.0242 202.575 49.37C202.879 48.7092 203.038 47.9162 203.038 46.9845C203.038 46.0527 202.886 45.2597 202.575 44.5989C202.271 43.9381 201.809 43.4359 201.194 43.0922V43.0988ZM201.485 48.9934C201.234 49.4824 200.87 49.8392 200.401 50.0507C199.932 50.2688 199.363 50.3745 198.696 50.3745H196.905V43.6077H198.696C199.363 43.6077 199.932 43.7134 200.401 43.9315C200.87 44.1495 201.234 44.4998 201.485 44.9888C201.736 45.4778 201.868 46.1452 201.868 46.9911C201.868 47.8369 201.742 48.5044 201.485 48.9934Z" fill="#49484F"/>
<path d="M207.762 42.5768H206.606V51.3988H207.762V42.5768Z" fill="#49484F"/>
<path d="M213.822 43.9711C214.252 43.6737 214.807 43.5218 215.481 43.5218C216.036 43.5218 216.505 43.6275 216.888 43.8323C217.272 44.0372 217.582 44.328 217.813 44.6914C218.045 45.0615 218.21 45.491 218.309 45.98L219.333 45.306C219.142 44.698 218.864 44.1826 218.514 43.7597C218.157 43.3367 217.728 43.0063 217.219 42.775C216.71 42.5503 216.128 42.4314 215.468 42.4314C214.569 42.4314 213.822 42.6363 213.208 43.0394C212.6 43.4425 212.13 43.9843 211.813 44.665C211.496 45.3456 211.331 46.1122 211.331 46.9646C211.331 47.8171 211.489 48.5704 211.813 49.2577C212.137 49.9449 212.6 50.4868 213.208 50.8899C213.816 51.293 214.569 51.4979 215.468 51.4979C216.128 51.4979 216.71 51.3855 217.219 51.1543C217.728 50.923 218.157 50.5992 218.514 50.163C218.871 49.7335 219.142 49.218 219.333 48.6233L218.309 47.9493C218.217 48.4317 218.051 48.8612 217.813 49.2313C217.576 49.6013 217.272 49.8921 216.888 50.0969C216.498 50.3018 216.029 50.4075 215.481 50.4075C214.807 50.4075 214.252 50.2555 213.822 49.9582C213.393 49.6608 213.069 49.2511 212.857 48.7356C212.646 48.2202 212.534 47.6255 212.534 46.958C212.534 46.2906 212.639 45.6893 212.857 45.1738C213.075 44.6584 213.393 44.2553 213.822 43.9579V43.9711Z" fill="#49484F"/>
<path d="M223.88 42.5768H222.724V51.3988H223.88V42.5768Z" fill="#49484F"/>
<path d="M233.852 48.2136L233.931 49.5683L233.026 48.2004L229.087 42.5768H228.056V51.3988H229.219V45.6496L229.153 44.4733L229.94 45.6562L233.984 51.3988H235.015V42.5768H233.852V48.2136Z" fill="#49484F"/>
<path d="M245.231 43.6077V42.5768H240.348H239.581H239.185V51.3988H239.581H240.348H245.231V50.3745H240.348V47.3876H244.385V46.3699H240.348V43.6077H245.231Z" fill="#49484F"/>
</g>
<defs>
<clipPath id="clip0_298_736">
<rect width="307.17" height="65.2496" fill="white"/>
</clipPath>
</defs>
</svg>
